<!--?xml version="1.0" encoding="utf-8"?-->
<!-- Generator: Adobe Illustrator 15.0.0, SVG Export Plug-In . SVG Version: 6.00 Build 0)  -->

<svg style="width: 16px; height: 16px;" preserveAspectRatio="xMidYMid " class="svg" xmlns="http://www.w3.org/2000/svg" xmlns:xlink="http://www.w3.org/1999/xlink" width="300" height="300" viewBox="0 0 512 512">
<g>

	<path d="M68.559,324.958C30.753,324.958,0,355.693,0,393.536c0,37.694,30.753,68.484,68.559,68.484
				c37.787,0,68.541-30.771,68.541-68.484C137.099,355.693,106.346,324.958,68.559,324.958z" id="path-0" fill="#ffb940" style="position: relative; fill: rgb(130, 130, 130);"></path>
			<path d="M7.127,150.907c-3.916,0-7.127,3.211-7.127,7.164v87.006c0,3.917,3.211,7.109,7.127,7.109
				c111.728,0,202.688,90.922,202.688,202.688c0,3.896,3.155,7.126,7.126,7.126h87.063h0.298c3.971,0,7.163-3.229,7.163-7.126
				l-0.334-2.228C309.869,286.095,173.939,150.907,7.127,150.907z" id="path-1" fill="#fac012" style="position: relative; fill: rgb(130, 130, 130);"></path>
			<path d="M462.02,452.648C460.795,202.8,257.161,0,7.127,0C3.211,0,0,3.211,0,7.165v89.531c0,3.935,3.211,7.127,7.127,7.127
				c193.575,0,351.071,157.496,351.071,351.072c0,3.896,3.192,7.126,7.091,7.126h89.567h0.372c3.896,0,7.2-3.229,7.2-7.126
				L462.02,452.648z" id="path-2" fill="#fcc112" style="position: relative; fill: rgb(130, 130, 130);"></path>
</g>
</svg>	
